<?xml version="1.0" encoding="UTF-8"?>
<svg width="66px" height="66px" viewBox="0 0 66 66" version="1.1" xmlns="http://www.w3.org/2000/svg" xmlns:xlink="http://www.w3.org/1999/xlink">
    <!-- Generator: Sketch 51.3 (57544) - http://www.bohemiancoding.com/sketch -->
    <title>Artboard</title>
    <desc>Created with Sketch.</desc>
    <defs></defs>
    <g id="Artboard" stroke="none" stroke-width="1" fill="none" fill-rule="evenodd">
        <g id="iconfinder_12_2870254" transform="translate(3.000000, 0.000000)" fill="#F2F0F0" fill-rule="nonzero">
            <path d="M56.3283154,10.296875 C50.734767,10.296875 50.734767,10.296875 41.8265233,10.296875 L41.8265233,6.6875 C41.8265233,3.284375 39.0297491,0.5 35.6114695,0.5 L23.3885305,0.5 C19.9702509,0.5 17.1734767,3.284375 17.1734767,6.6875 L17.1734767,10.296875 C12.8229391,10.296875 5.98637993,10.296875 2.67168459,10.296875 C1.53225806,10.296875 0.6,11.225 0.6,12.359375 C0.6,13.49375 1.53225806,14.421875 2.67168459,14.421875 L3.81111111,14.421875 L8.3688172,60.93125 C8.67956989,64.128125 11.3727599,66.5 14.583871,66.5 L44.5197133,66.5 C47.7308244,66.5 50.4240143,64.128125 50.734767,60.93125 L55.1888889,14.421875 L56.3283154,14.421875 C57.4677419,14.421875 58.4,13.49375 58.4,12.359375 C58.4,11.225 57.4677419,10.296875 56.3283154,10.296875 Z M21.6,7.5 C21.6,6.4 22.5,5.5 23.6,5.5 L35.4,5.5 C36.5,5.5 37.4,6.4 37.4,7.5 L37.4,11 L21.6,11 L21.6,7.5 Z M45.9,59.7 C45.8,60.7 44.9,61.5 43.9,61.5 L15.1,61.5 C14.1,61.5 13.2,60.7 13.1,59.7 L8.7,15 C22.5,15 36.4,15 50.2,15 L45.9,59.7 Z" id="Shape"></path>
            <path d="M36.5698285,24.523372 L33.3025901,51.5493399 C33.1719006,52.724382 34.2174169,53.7926021 35.6550017,53.8994241 C37.0925866,54.0062461 38.399482,53.15167 38.5301715,51.976628 L41.7974099,24.9506601 C41.9280994,23.775618 40.8825831,22.7073979 39.4449983,22.6005759 C38.0074134,22.4937539 36.8312076,23.34833 36.5698285,24.523372 Z" id="Shape"></path>
            <path d="M19.5550017,22.6005759 C18.1174169,22.7073979 17.0719006,23.775618 17.2025901,24.9506601 L20.4698285,51.976628 C20.600518,53.15167 21.9074134,54.0062461 23.3449983,53.8994241 C24.7825831,53.7926021 25.8280994,52.724382 25.6974099,51.5493399 L22.4301715,24.523372 C22.1687924,23.34833 20.9925866,22.4937539 19.5550017,22.6005759 Z" id="Shape"></path>
        </g>
    </g>
</svg>