<?xml version="1.0" encoding="UTF-8"?>
<svg width="36px" height="28px" viewBox="0 0 36 28" version="1.1" xmlns="http://www.w3.org/2000/svg" xmlns:xlink="http://www.w3.org/1999/xlink">
    <!-- Generator: Sketch 51.3 (57544) - http://www.bohemiancoding.com/sketch -->
    <title>Artboard</title>
    <desc>Created with Sketch.</desc>
    <defs></defs>
    <g id="Artboard" stroke="none" stroke-width="1" fill="none" fill-rule="evenodd">
        <g id="if_camera-switch_414544" transform="translate(1.000000, 1.000000)" fill="#FFFFFF" fill-rule="nonzero" stroke="#BCBCBC">
            <path d="M29.9489531,3.2194898 L24.3891562,3.2194898 L23.6037031,1.59926531 C23.5776719,1.54355102 23.5460625,1.4904898 23.5096719,1.44061224 C22.9157344,0.61922449 21.711125,0 20.7075937,0 L13.2924062,0 C12.2883437,0 11.0837344,0.61922449 10.4903281,1.44061224 C10.4542031,1.4904898 10.4225937,1.54355102 10.3957656,1.599 L9.6103125,3.21922449 L4.05078125,3.21922449 C1.81714062,3.21922449 0,5.03418367 0,7.26514286 L0,21.9540816 C0,24.1850408 1.81714062,26 4.05078125,26 L29.9489531,26 C32.1828594,26 33.9997344,24.1850408 33.9997344,21.9540816 L33.9997344,7.26540816 C33.9997344,5.03444898 32.1828594,3.2194898 29.9489531,3.2194898 Z M31.8747344,21.9540816 C31.8747344,23.0147755 31.0109219,23.877551 29.9489531,23.877551 L4.05078125,23.877551 C2.9888125,23.877551 2.125,23.0147755 2.125,21.9540816 L2.125,7.26514286 C2.125,6.20444898 2.9888125,5.34167347 4.05078125,5.34167347 L10.2762344,5.34167347 C10.6834375,5.34167347 11.0550469,5.109 11.2324844,4.74287755 L12.2583281,2.62679592 C12.484375,2.37263265 12.9869375,2.12244898 13.2924063,2.12244898 L20.7075938,2.12244898 C21.0122656,2.12244898 21.5158906,2.37236735 21.7419375,2.62679592 L22.7667188,4.74287755 C22.9441563,5.109 23.3162969,5.34167347 23.7237656,5.34167347 L29.9492188,5.34167347 C31.0111875,5.34167347 31.875,6.20444898 31.875,7.26514286 L31.875,21.9540816 L31.8747344,21.9540816 Z" id="Shape"></path>
            <path d="M21.9892344,8.4935102 C20.6223281,7.15689796 18.8200625,6.42067347 16.904375,6.42067347 C14.9618594,6.42067347 13.1354219,7.17626531 11.7616094,8.54842857 C10.7649844,9.54412245 10.0833906,10.7950408 9.7909375,12.1661429 C9.66875,12.7392041 10.0347812,13.3029796 10.6087969,13.4252857 C10.6834375,13.4412041 10.7578125,13.4486327 10.831125,13.4486327 C11.322,13.4486327 11.7629375,13.1071837 11.8691875,12.6084082 C12.0761094,11.6392449 12.5584844,10.7541837 13.26425,10.0492653 C14.2364375,9.07797959 15.5292344,8.54312245 16.904375,8.54312245 C18.2526875,8.54312245 19.5194531,9.05993878 20.4855313,9.99540816 L19.0429219,11.4360204 L25.0428594,13.0408571 L23.4355625,7.04891837 L21.9892344,8.4935102 Z" id="Shape"></path>
            <path d="M23.3917344,14.7340408 C22.8174531,14.612 22.2532656,14.9773265 22.1308125,15.5503878 C21.9238906,16.519551 21.44125,17.4046122 20.73575,18.1097959 C19.7632969,19.0810816 18.4705,19.6162041 17.0953594,19.6162041 C15.7467813,19.6162041 14.47975,19.0988571 13.5139375,18.1628571 L14.9562812,16.7222449 L8.95660938,15.1174082 L10.5641719,21.1096122 L12.0102344,19.6652857 C13.3774063,21.001898 15.1794063,21.7383878 17.095625,21.7383878 C19.0381406,21.7383878 20.8645781,20.9825306 22.2386562,19.610102 C23.2350156,18.6144082 23.9163438,17.3637551 24.2093281,15.9931837 C24.3317812,15.4201224 23.96575,14.8563469 23.3917344,14.7340408 Z" id="Shape"></path>
        </g>
    </g>
</svg>