<?xml version="1.0" encoding="UTF-8"?>
<svg width="36px" height="28px" viewBox="0 0 36 28" version="1.1" xmlns="http://www.w3.org/2000/svg" xmlns:xlink="http://www.w3.org/1999/xlink">
    <!-- Generator: Sketch 51.3 (57544) - http://www.bohemiancoding.com/sketch -->
    <title>camera_button_front</title>
    <desc>Created with Sketch.</desc>
    <defs></defs>
    <g id="Page-1" stroke="none" stroke-width="1" fill="none" fill-rule="evenodd">
        <g id="camera_button_front" transform="translate(1.000000, 1.000000)" fill="#FFFFFF" fill-rule="nonzero">
            <g id="if_camera-switch_414544" stroke="#BCBCBC">
                <path d="M29.9489531,3.2194898 L24.3891563,3.2194898 L23.6037031,1.59926531 C23.5776719,1.54355102 23.5460625,1.4904898 23.5096719,1.44061224 C22.9157344,0.61922449 21.711125,0 20.7075938,0 L13.2924063,0 C12.2883438,0 11.0837344,0.61922449 10.4903281,1.44061224 C10.4542031,1.4904898 10.4225938,1.54355102 10.3957656,1.599 L9.6103125,3.21922449 L4.05078125,3.21922449 C1.81714063,3.21922449 0,5.03418367 0,7.26514286 L0,21.9540816 C0,24.1850408 1.81714063,26 4.05078125,26 L29.9489531,26 C32.1828594,26 33.9997344,24.1850408 33.9997344,21.9540816 L33.9997344,7.26540816 C33.9997344,5.03444898 32.1828594,3.2194898 29.9489531,3.2194898 Z M31.8747344,21.9540816 C31.8747344,23.0147755 31.0109219,23.877551 29.9489531,23.877551 L4.05078125,23.877551 C2.9888125,23.877551 2.125,23.0147755 2.125,21.9540816 L2.125,7.26514286 C2.125,6.20444898 2.9888125,5.34167347 4.05078125,5.34167347 L10.2762344,5.34167347 C10.6834375,5.34167347 11.0550469,5.109 11.2324844,4.74287755 L12.2583281,2.62679592 C12.484375,2.37263265 12.9869375,2.12244898 13.2924063,2.12244898 L20.7075938,2.12244898 C21.0122656,2.12244898 21.5158906,2.37236735 21.7419375,2.62679592 L22.7667188,4.74287755 C22.9441563,5.109 23.3162969,5.34167347 23.7237656,5.34167347 L29.9492188,5.34167347 C31.0111875,5.34167347 31.875,6.20444898 31.875,7.26514286 L31.875,21.9540816 L31.8747344,21.9540816 Z" id="Shape"></path>
            </g>
            <circle id="Oval" cx="11.5" cy="11" r="2"></circle>
            <circle id="Oval-Copy" cx="22.5" cy="11" r="2"></circle>
            <path d="M10.2358405,15.6894142 C11.0281993,16.2978358 11.5755806,16.7036971 11.8779845,16.9069981 C13.2932743,17.8584738 14.7945602,18.6152521 17.0027464,18.6152521 C18.9907611,18.6152521 20.7821579,17.6781955 22.1275082,16.9069981 C22.519555,16.6822645 23.0736138,16.2814547 23.7896844,15.7045686 L23.7896846,15.7045689 C24.1429182,15.4199942 24.6538516,15.4474156 24.9745981,15.7681621 C25.2824513,16.0760153 25.2824513,16.5751439 24.9745981,16.882997 C24.9664707,16.8911244 24.9581665,16.8990731 24.9496915,16.9068374 C22.4634126,19.1846191 19.8144286,20.323506 17.0027464,20.323506 C14.1910641,20.323506 11.5420801,19.1846191 9.0557941,16.9068452 L9.0558013,16.9068374 C8.73478141,16.6127399 8.71295658,16.1140887 9.0070541,15.7930688 C9.0148184,15.7845938 9.0227671,15.7762896 9.0308946,15.7681621 C9.355853,15.4432037 9.8713609,15.4095026 10.2358608,15.6893879 L10.2358405,15.6894142 Z" id="Rectangle"></path>
        </g>
    </g>
</svg>