<?xml version="1.0" encoding="UTF-8"?>
<svg width="66px" height="66px" viewBox="0 0 66 66" version="1.1" xmlns="http://www.w3.org/2000/svg" xmlns:xlink="http://www.w3.org/1999/xlink">
    <!-- Generator: Sketch 51.3 (57544) - http://www.bohemiancoding.com/sketch -->
    <title>Custom Preset 2</title>
    <desc>Created with Sketch.</desc>
    <defs></defs>
    <g id="Custom-Preset-2" stroke="none" stroke-width="1" fill="none" fill-rule="evenodd">
        <g id="trash_button" transform="translate(3.000000, 3.000000)" fill="#FFFFFF" fill-rule="nonzero" stroke="#979797" stroke-width="2">
            <path d="M57.8494623,8.90625 C52.0430108,8.90625 52.0430108,8.90625 42.7956989,8.90625 L42.7956989,5.625 C42.7956989,2.53125 39.8924731,0 36.344086,0 L23.655914,0 C20.1075269,0 17.2043011,2.53125 17.2043011,5.625 L17.2043011,8.90625 C12.688172,8.90625 5.59139784,8.90625 2.15053763,8.90625 C0.967741936,8.90625 0,9.75 0,10.78125 C0,11.8125 0.967741936,12.65625 2.15053763,12.65625 L3.33333333,12.65625 L8.06451613,54.9375 C8.38709678,57.84375 11.1827957,60 14.516129,60 L45.5913979,60 C48.9247312,60 51.7204301,57.84375 52.0430108,54.9375 L56.6666667,12.65625 L57.8494623,12.65625 C59.0322581,12.65625 60,11.8125 60,10.78125 C60,9.75 59.0322581,8.90625 57.8494623,8.90625 Z M21.4285714,5.79545454 C21.4285714,4.67045454 22.4050633,3.75 23.5985533,3.75 L36.4014467,3.75 C37.5949367,3.75 38.5714286,4.67045454 38.5714286,5.79545454 L38.5714286,9.375 L21.4285714,9.375 L21.4285714,5.79545454 Z M47.8373494,55.4818549 C47.7289157,56.4294354 46.753012,57.1875 45.6686747,57.1875 L14.439759,57.1875 C13.3554217,57.1875 12.3795181,56.4294354 12.2710843,55.4818549 L7.5,13.125 C22.4638554,13.125 37.5361446,13.125 52.5,13.125 L47.8373494,55.4818549 Z" id="Shape"></path>
            <path d="M36.3271107,23.2974171 L33.3434053,47.568845 C33.2240571,48.6241244 34.1788428,49.5834694 35.4916731,49.6794039 C36.8045034,49.7753384 37.9979856,49.0078625 38.1173338,47.9525829 L41.1010391,23.681155 C41.2203873,22.6258756 40.2656017,21.6665306 38.9527713,21.5705961 C37.639941,21.4746616 36.5658071,22.2421375 36.3271107,23.2974171 Z" id="Shape"></path>
            <path d="M19.9361176,21.5705961 C18.6232872,21.6665306 17.6685016,22.6258756 17.7878498,23.681155 L20.7715551,47.9525829 C20.8909033,49.0078625 22.0843854,49.7753384 23.3972158,49.6794039 C24.7100461,49.5834694 25.6648318,48.6241244 25.5454836,47.568845 L22.5617782,23.2974171 C22.3230818,22.2421375 21.2489479,21.4746616 19.9361176,21.5705961 Z" id="Shape"></path>
        </g>
    </g>
</svg>