<?xml version="1.0" encoding="UTF-8"?>
<svg width="36px" height="36px" viewBox="0 0 36 36" version="1.1" xmlns="http://www.w3.org/2000/svg" xmlns:xlink="http://www.w3.org/1999/xlink">
    <!-- Generator: Sketch 51.3 (57544) - http://www.bohemiancoding.com/sketch -->
    <title>Artboard</title>
    <desc>Created with Sketch.</desc>
    <defs></defs>
    <g id="Artboard" stroke="none" stroke-width="1" fill="none" fill-rule="evenodd">
        <g id="take_button_touched" fill="#F2F0F0" fill-rule="nonzero">
            <circle id="Oval" cx="18" cy="18" r="18"></circle>
        </g>
        <g id="iconfinder_Send_2462530" transform="translate(1.000000, 1.000000)" fill-rule="nonzero">
            <circle id="Oval" fill="#004D93" cx="17" cy="17.017185" r="17"></circle>
            <g id="Group" transform="translate(6.611111, 8.270270)" fill="#FFFFFF">
                <g id="Combined-Shape">
                    <path d="M20.5226975,8.31501066 C20.5226975,8.32271688 20.5226975,8.32271688 20.5226975,8.33042309 C20.5149385,8.39207285 20.5459747,8.46913504 20.4994204,8.52307858 C20.4295889,8.60014077 20.3597574,8.67720296 20.2511306,8.72344028 C19.1648631,9.15498856 18.0863546,9.58653685 17.0000871,10.0257913 C12.2670642,11.9215213 7.54180037,13.8172513 2.80877751,15.705275 C2.09494455,15.9904051 1.38111159,16.2755352 0.675037688,16.5606653 C0.527615664,16.6223151 0.38019364,16.5914902 0.232771616,16.5991964 C0.178458239,16.5991964 0.147422024,16.5375467 0.108626754,16.5067218 C0.0310362155,16.445072 0.00775905388,16.3680099 0.00775905388,16.2755352 C0.00775905388,16.1291171 0.0387952694,15.9981113 0.1008677,15.8593994 C1.21041241,13.385703 2.31995711,10.9043004 3.42950182,8.43060395 C3.46829709,8.35354175 3.46053803,8.291892 3.42950182,8.2148298 C2.31219806,5.73342718 1.20265335,3.24431834 0.0853495927,0.762915714 C0.0155181078,0.601085108 0.0155181078,0.446960721 0.0155181078,0.285130115 C0.0155181078,0.262011457 0.0232771616,0.238892799 0.0387952694,0.215774141 C0.131903916,0.123299509 0.209494455,0.0308248773 0.364675533,0.0385310966 C0.512097556,0.046237316 0.644001472,0.0770621933 0.783664442,0.131005729 C3.53036952,1.23299509 6.27707459,2.33498446 9.02377967,3.4292676 C12.7558846,4.92427415 16.4957486,6.4192807 20.2278535,7.91428725 C20.3364802,7.95281835 20.4063117,8.02988054 20.4839023,8.10694273 C20.5071794,8.13006139 20.5149385,8.16088627 20.5149385,8.19941737 C20.5149385,8.22253602 20.5226975,8.26877334 20.5226975,8.31501066 Z M18.6217293,7.98364322 C18.6217293,7.97593701 18.6217293,7.96823079 18.6372474,7.95281835 C12.7248484,5.58700901 6.81244931,3.22119968 0.884532143,0.847684126 C0.884532143,0.909333881 0.915568358,0.947864977 0.931086466,0.986396074 C1.78458239,2.89753847 2.63807832,4.80868086 3.49157425,6.71982325 C3.67003249,7.11284044 3.84849073,7.50585763 4.01918991,7.89887481 C4.05022613,7.96052457 4.08126234,7.99905566 4.15109383,7.98364322 C4.16661194,7.98364322 4.18213004,7.98364322 4.19764815,7.98364322 C8.96170724,7.98364322 13.7335254,7.98364322 18.5053435,7.98364322 C18.5441388,7.98364322 18.5829341,7.98364322 18.6217293,7.98364322 Z M0.869014035,15.7438061 C0.876773089,15.7438061 0.876773089,15.7515123 0.892291197,15.7592185 C6.78917215,13.3934092 12.6860531,11.0353061 18.6139703,8.66179053 C18.5363797,8.63867187 18.4820663,8.64637809 18.435512,8.64637809 C13.686971,8.64637809 8.93843007,8.64637809 4.1898891,8.64637809 C4.07350329,8.64637809 4.02694897,8.68490918 3.98039464,8.78509003 C3.08810345,10.7887071 2.1880532,12.7846179 1.295762,14.7882349 C1.15609903,15.1041899 1.008677,15.4278511 0.869014035,15.7438061 Z"></path>
                </g>
            </g>
        </g>
    </g>
</svg>