<?xml version="1.0" encoding="UTF-8"?>
<svg width="66px" height="66px" viewBox="0 0 66 66" version="1.1" xmlns="http://www.w3.org/2000/svg" xmlns:xlink="http://www.w3.org/1999/xlink">
    <!-- Generator: Sketch 51.3 (57544) - http://www.bohemiancoding.com/sketch -->
    <title>Artboard</title>
    <desc>Created with Sketch.</desc>
    <defs></defs>
    <g id="Artboard" stroke="none" stroke-width="1" fill="none" fill-rule="evenodd">
        <g id="trash_button" transform="translate(6.000000, 1.000000)" fill="#FFFFFF" fill-rule="nonzero">
            <path d="M52.0645161,9.5 C46.8387097,9.5 46.8387097,9.5 38.516129,9.5 L38.516129,6 C38.516129,2.7 35.9032258,0 32.7096774,0 L21.2903226,0 C18.0967742,0 15.483871,2.7 15.483871,6 L15.483871,9.5 C11.4193548,9.5 5.03225806,9.5 1.93548387,9.5 C0.870967742,9.5 0,10.4 0,11.5 C0,12.6 0.870967742,13.5 1.93548387,13.5 L3,13.5 L7.25806452,58.6 C7.5483871,61.7 10.0645161,64 13.0645161,64 L41.0322581,64 C44.0322581,64 46.5483871,61.7 46.8387097,58.6 L51,13.5 L52.0645161,13.5 C53.1290323,13.5 54,12.6 54,11.5 C54,10.4 53.1290323,9.5 52.0645161,9.5 Z M19.2857143,6.18181818 C19.2857143,4.98181818 20.164557,4 21.238698,4 L32.761302,4 C33.835443,4 34.7142857,4.98181818 34.7142857,6.18181818 L34.7142857,10 L19.2857143,10 L19.2857143,6.18181818 Z M43.0536145,59.1806452 C42.9560241,60.1913978 42.0777108,61 41.1018072,61 L12.9957831,61 C12.0198795,61 11.1415663,60.1913978 11.0439759,59.1806452 L6.75,14 C20.2174699,14 33.7825301,14 47.25,14 L43.0536145,59.1806452 Z" id="Shape"></path>
            <path d="M32.6943996,24.8505782 L30.0090648,50.7401013 C29.9016514,51.8657327 30.7609585,52.889034 31.9425058,52.9913642 C33.1240531,53.0936943 34.198187,52.2750533 34.3056004,51.1494218 L36.9909352,25.2598987 C37.0983486,24.1342673 36.2390415,23.110966 35.0574942,23.0086358 C33.8759469,22.9063057 32.9092264,23.7249467 32.6943996,24.8505782 Z" id="Shape"></path>
            <path d="M17.9425058,23.0086358 C16.7609585,23.110966 15.9016514,24.1342673 16.0090648,25.2598987 L18.6943996,51.1494218 C18.801813,52.2750533 19.8759469,53.0936943 21.0574942,52.9913642 C22.2390415,52.889034 23.0983486,51.8657327 22.9909352,50.7401013 L20.3056004,24.8505782 C20.0907736,23.7249467 19.1240531,22.9063057 17.9425058,23.0086358 Z" id="Shape"></path>
        </g>
    </g>
</svg>